<?xml version="1.0" encoding="UTF-8"?>
<svg id="confused_copy" data-name="confused copy" xmlns="http://www.w3.org/2000/svg" viewBox="0 0 512 468.71">
  <defs>
    <style>
      .cls-1 {
        fill: #eae8f1;
      }

      .cls-1, .cls-2, .cls-3 {
        stroke-width: 0px;
      }

      .cls-2 {
        fill: #514284;
      }

      .cls-3 {
        fill: #decfe6;
      }
    </style>
  </defs>
  <path class="cls-2" d="m511.8,257.78c-.62-5.5-.91-10.66-1.69-15.72-4.01-25.93-10.81-51.04-22.47-74.67-1.1-2.23-1.61-4.11-.11-6.48,10.57-16.56,14.75-34.63,12.8-54.22-1.47-14.71-6.43-27.79-16.69-38.63-25.68-27.15-66.01-29.94-96.96-6.58-2.61,1.98-4.53,2.38-7.55.89-47.94-23.65-98.38-35.15-152.01-31.45-21.71,1.5-42.86,5.47-63.22,13.07-4.54,1.69-6.93.91-10.12-2.53-22.89-24.68-56.87-30.7-85.71-16.59-38.19,18.65-46.15,72.1-26.37,104.54,2.88,4.72,2.44,7.51-.37,11.79C18.82,175.46,6.61,212.84,8.02,254.18c.14,3.98,1.02,7.99.67,11.92-1.44,15.9-6.1,31.26-8.42,47.49,0,8.15,0,15.84.14,23.88,3.92,23.79,15.2,42.71,34.17,57.07,16.75,12.68,35.8,20.44,55.86,25.77,53.53,14.24,108.17,21.58,163.35,24.78,28.04,1.63,56.14,3.18,84.31,1.42,26.19-1.64,51.9-5.26,76.57-14.56,47.13-17.79,77.34-50.99,90.68-99.59,3.44-12.53,5.09-25.35,6.57-38.68,0-12.14,0-23.83-.12-35.88Zm-34.8,104.29c-14.5,26.48-37.16,43.53-64.65,54.66-21.16,8.57-43.36,12.34-66.03,14.12-20.96,1.65-41.95,1.39-62.88.63-29.06-1.05-58.1-2.83-86.99-6.59-34.62-4.48-69.04-9.98-102.76-19.23-18.9-5.19-36.98-12.37-52.35-24.98-20.39-16.73-28.67-38.43-26.09-64.56,1.41-14.28,5.78-27.97,7.7-42.14.81-6,.79-11.98.43-17.93-2.28-38.32,8.71-72.93,29.1-104.93,3.21-5.05,6.81-9.86,10.32-14.71,1.31-1.81,2.16-3.35-.06-5.09-10-7.8-14.23-18.91-15.74-30.76-2.08-16.35-.06-32.24,9.67-46.32,9.25-13.4,22.46-20.08,38.25-21.52,23.79-2.18,41.33,8.82,54.66,27.55,2.26,3.17,3.99,3.95,7.68,2.36,28.84-12.48,59.08-17.55,90.43-17.29,47.22.4,91.38,12.2,132.73,34.78,3.58,1.96,5.81,1.97,8.99-1.08,12.63-12.07,27.54-19.31,45.41-18.34,23.75,1.28,49.23,18.14,50.78,50.01.52,10.6-.85,20.91-4.89,30.78-2.9,6.89-6.19,12.67-10.96,17.45-1.68,1.68-1.91,3.17-.75,5.28,13.84,25.04,22.32,51.87,26.11,80.17,5.48,40.97,2.14,80.69-18.11,117.68Z"/>
  <path class="cls-3" d="m477,362.07c-14.5,26.48-37.16,43.53-64.65,54.66-21.16,8.57-43.36,12.34-66.03,14.12-20.96,1.65-41.95,1.39-62.88.63-29.06-1.05-58.1-2.83-86.99-6.59-34.62-4.48-69.04-9.98-102.76-19.23-18.9-5.19-36.98-12.37-52.35-24.98-20.39-16.73-28.67-38.43-26.09-64.56,1.41-14.28,5.78-27.97,7.7-42.14.81-6,.79-11.98.43-17.93-2.28-38.32,8.71-72.93,29.1-104.93,3.21-5.05,6.81-9.86,10.32-14.71,1.31-1.81,2.16-3.35-.06-5.09-10-7.8-14.23-18.91-15.74-30.76-2.08-16.35-.06-32.24,9.67-46.32,9.25-13.4,22.46-20.08,38.25-21.52,23.79-2.18,41.33,8.82,54.66,27.55,2.26,3.17,3.99,3.95,7.68,2.36,28.84-12.48,59.08-17.55,90.43-17.29,47.22.4,91.38,12.2,132.73,34.78,3.58,1.96,5.81,1.97,8.99-1.08,12.63-12.07,27.54-19.31,45.41-18.34,23.75,1.28,49.23,18.14,50.78,50.01.52,10.6-.85,20.91-4.89,30.78-2.9,6.89-6.19,12.67-10.96,17.45-1.68,1.68-1.91,3.17-.75,5.28,13.84,25.04,22.32,51.87,26.11,80.17,5.48,40.97,2.14,80.69-18.11,117.68Z"/>
  <path class="cls-2" d="m299.56,161.94c8.21,1.29,12.59,6.11,14.9,13.42,2.9,9.21,1.31,18.49.58,27.72-.64,8.1-1.8,16.17-2.65,24.26-1.13,10.78-6.8,17.53-16,18.9-8.43,1.25-17.41-4.4-21.17-13.48-3.46-8.38-3.77-17.08-2.47-25.97,1.18-8.04,1.75-16.19,3.22-24.17,2.58-14.03,10.48-20.85,23.6-20.68Z"/>
  <path class="cls-2" d="m419.03,127.2c-3.48-6.42-8.97-10.14-14.61-13.77-7.8-5.02-8.45-8.79-3.1-16.36,13.4-18.94,40.37-21.3,55.5-4.85,11.5,12.51,9.82,39.6-3.13,50.58-8.96,7.59-19.89,6.52-26.94-2.95-2.86-3.85-5.04-8.21-7.72-12.64Z"/>
  <path class="cls-2" d="m189.87,178.86c-.82,15.35-1.62,30.27-4.39,44.99-1.44,7.68-5.68,13.26-13.58,14.84-8.06,1.61-14.77-1.3-19.64-7.94-5.49-7.48-7.01-16.17-6.24-25.11.88-10.23,2.41-20.42,3.93-30.59.43-2.91,1.56-5.79,2.81-8.48,3.92-8.43,13.23-13.45,21.59-11.88,8.21,1.55,14.12,8.71,15.05,18.27.18,1.82.31,3.64.49,5.9Z"/>
  <path class="cls-2" d="m68.94,99.17c-1.92-8.35-1.82-16.25.7-24.02,7.1-21.96,33.83-29.32,52.62-14.54.65.51,1.27,1.07,1.9,1.62,10.62,9.44,10.56,11.05-.88,18.46-14.01,9.08-27.17,19.25-38.77,31.26-3.53,3.65-5.93,3.07-8.97-.19-3.28-3.52-5.21-7.67-6.6-12.6Z"/>
  <ellipse class="cls-1" cx="380.71" cy="270.53" rx="32.82" ry="19.49" transform="translate(-27.94 44.42) rotate(-6.44)"/>
  <ellipse class="cls-1" cx="79.16" cy="246.42" rx="19.49" ry="32.82" transform="translate(-179.02 264.65) rotate(-76.23)"/>
  <rect class="cls-2" x="168.61" y="311.59" width="99.74" height="23.11" rx="11.56" ry="11.56" transform="translate(26.39 -16.35) rotate(4.56)"/>
</svg>