<?xml version="1.0" encoding="UTF-8"?>
<svg id="confused_copy_2" data-name="confused copy 2" xmlns="http://www.w3.org/2000/svg" viewBox="0 0 512.08 468.71">
  <defs>
    <style>
      .cls-1 {
        fill: #eae8f1;
      }

      .cls-1, .cls-2, .cls-3 {
        stroke-width: 0px;
      }

      .cls-2 {
        fill: #514284;
      }

      .cls-3 {
        fill: #decfe6;
      }
    </style>
  </defs>
  <path class="cls-2" d="m511.88,257.78c-.62-5.5-.91-10.66-1.69-15.72-4.01-25.93-10.81-51.04-22.47-74.67-1.1-2.23-1.61-4.11-.11-6.48,10.57-16.56,14.75-34.63,12.8-54.22-1.47-14.71-6.43-27.79-16.69-38.63-25.68-27.15-66.01-29.94-96.96-6.58-2.61,1.98-4.53,2.38-7.55.89-47.94-23.65-98.38-35.15-152.01-31.45-21.71,1.5-42.86,5.47-63.22,13.07-4.54,1.69-6.93.91-10.12-2.53-22.89-24.68-56.87-30.7-85.71-16.59-38.19,18.65-46.15,72.1-26.37,104.54,2.88,4.72,2.44,7.51-.37,11.79C18.91,175.46,6.69,212.84,8.11,254.18c.14,3.98,1.02,7.99.67,11.92-1.44,15.9-6.1,31.26-8.42,47.49,0,8.15,0,15.84.14,23.88,3.92,23.79,15.2,42.71,34.17,57.07,16.75,12.68,35.8,20.44,55.86,25.77,53.53,14.24,108.17,21.58,163.35,24.78,28.04,1.63,56.14,3.18,84.31,1.42,26.19-1.64,51.9-5.26,76.57-14.56,47.13-17.79,77.34-50.99,90.68-99.59,3.44-12.53,5.09-25.35,6.57-38.68,0-12.14,0-23.83-.12-35.88Zm-34.8,104.29c-14.5,26.48-37.16,43.53-64.65,54.66-21.16,8.57-43.36,12.34-66.03,14.12-20.96,1.65-41.95,1.39-62.88.63-29.06-1.05-58.1-2.83-86.99-6.59-34.62-4.48-69.04-9.98-102.76-19.23-18.9-5.19-36.98-12.37-52.35-24.98-20.39-16.73-28.67-38.43-26.09-64.56,1.41-14.28,5.78-27.97,7.7-42.14.81-6,.79-11.98.43-17.93-2.28-38.32,8.71-72.93,29.1-104.93,3.21-5.05,6.81-9.86,10.32-14.71,1.31-1.81,2.16-3.35-.06-5.09-10-7.8-14.23-18.91-15.74-30.76-2.08-16.35-.06-32.24,9.67-46.32,9.25-13.4,22.46-20.08,38.25-21.52,23.79-2.18,41.33,8.82,54.66,27.55,2.26,3.17,3.99,3.95,7.68,2.36,28.84-12.48,59.08-17.55,90.43-17.29,47.22.4,91.38,12.2,132.73,34.78,3.58,1.96,5.81,1.97,8.99-1.08,12.63-12.07,27.54-19.31,45.41-18.34,23.75,1.28,49.23,18.14,50.78,50.01.52,10.6-.85,20.91-4.89,30.78-2.9,6.89-6.19,12.67-10.96,17.45-1.68,1.68-1.91,3.17-.75,5.28,13.84,25.04,22.32,51.87,26.11,80.17,5.48,40.97,2.14,80.69-18.11,117.68Z"/>
  <path class="cls-3" d="m477.08,362.07c-14.5,26.48-37.16,43.53-64.65,54.66-21.16,8.57-43.36,12.34-66.03,14.12-20.96,1.65-41.95,1.39-62.88.63-29.06-1.05-58.1-2.83-86.99-6.59-34.62-4.48-69.04-9.98-102.76-19.23-18.9-5.19-36.98-12.37-52.35-24.98-20.39-16.73-28.67-38.43-26.09-64.56,1.41-14.28,5.78-27.97,7.7-42.14.81-6,.79-11.98.43-17.93-2.28-38.32,8.71-72.93,29.1-104.93,3.21-5.05,6.81-9.86,10.32-14.71,1.31-1.81,2.16-3.35-.06-5.09-10-7.8-14.23-18.91-15.74-30.76-2.08-16.35-.06-32.24,9.67-46.32,9.25-13.4,22.46-20.08,38.25-21.52,23.79-2.18,41.33,8.82,54.66,27.55,2.26,3.17,3.99,3.95,7.68,2.36,28.84-12.48,59.08-17.55,90.43-17.29,47.22.4,91.38,12.2,132.73,34.78,3.58,1.96,5.81,1.97,8.99-1.08,12.63-12.07,27.54-19.31,45.41-18.34,23.75,1.28,49.23,18.14,50.78,50.01.52,10.6-.85,20.91-4.89,30.78-2.9,6.89-6.19,12.67-10.96,17.45-1.68,1.68-1.91,3.17-.75,5.28,13.84,25.04,22.32,51.87,26.11,80.17,5.48,40.97,2.14,80.69-18.11,117.68Z"/>
  <path class="cls-2" d="m419.11,127.2c-3.48-6.42-8.97-10.14-14.61-13.77-7.8-5.02-8.45-8.79-3.1-16.36,13.4-18.94,40.37-21.3,55.5-4.85,11.5,12.51,9.82,39.6-3.13,50.58-8.96,7.59-19.89,6.52-26.94-2.95-2.86-3.85-5.04-8.21-7.72-12.64Z"/>
  <path class="cls-2" d="m69.02,99.17c-1.92-8.35-1.82-16.25.7-24.02,7.1-21.96,33.83-29.32,52.62-14.54.65.51,1.27,1.07,1.9,1.62,10.62,9.44,10.56,11.05-.88,18.46-14.01,9.08-27.17,19.25-38.77,31.26-3.53,3.65-5.93,3.07-8.97-.19-3.28-3.52-5.21-7.67-6.6-12.6Z"/>
  <ellipse class="cls-1" cx="380.79" cy="270.53" rx="32.82" ry="19.49" transform="translate(-27.94 44.43) rotate(-6.44)"/>
  <ellipse class="cls-1" cx="79.25" cy="246.42" rx="19.49" ry="32.82" transform="translate(-178.95 264.73) rotate(-76.23)"/>
  <path class="cls-2" d="m147.75,175.96c10.99-8.93,22.46-16.21,35.35-21.1,6.26-2.37,8.5-.95,8.72,5.82.59,17.88-.95,35.63-4,53.23-1.07,6.15-3.23,12.06-7.2,17.02-5.07,6.31-11.4,9.95-19.88,8.49-9.42-1.63-18.05-4.28-21.64-14.59-.95-2.73-1.4-5.49-1-8.28,1.56-10.89,3.18-21.77,4.98-32.62.49-2.96,1.73-5.78,4.68-7.96Z"/>
  <path class="cls-2" d="m283.5,236.69c-4.48-15.56-.22-30.27,2.05-45.03,1.24-8.09,2.6-16.23,5.51-23.96,2.36-6.27,4.47-7.05,9.66-3.25,10.91,8,20.19,17.62,28.42,28.39,5.58,7.3,2.54,15.04,2.2,22.62-.28,6.18-1.42,12.32-2.05,18.5-.91,8.88-6.1,15.57-14.82,17.54-14.89,3.36-25.71-.48-30.97-14.8Z"/>
  <path class="cls-2" d="m168.71,301.14c2.7-9.78,10.6-10.64,18.21-11.6,22.31-2.82,44-.07,65.03,7.85,5.92,2.23,9.03,6.36,8.81,12.87-.2,5.99-3.33,9.73-8.73,11.72-2.91,1.07-5.93.92-8.85-.15-19.1-7-38.67-8.25-58.72-5.43-9.86,1.39-15.83-4.54-15.75-15.25Z"/>
</svg>