<?xml version="1.0" encoding="UTF-8"?>
<svg id="Layer_7" data-name="Layer 7" xmlns="http://www.w3.org/2000/svg" viewBox="0 0 512.08 468.71">
  <defs>
    <style>
      .cls-1 {
        fill: #514284;
      }

      .cls-1, .cls-2 {
        stroke-width: 0px;
      }

      .cls-2 {
        fill: #decfe6;
      }
    </style>
  </defs>
  <path class="cls-1" d="m512,293.69c-1.48,13.34-3.13,26.16-6.57,38.7-13.29,48.43-43.35,81.6-90.27,99.48-24.82,9.46-50.71,13.12-77.09,14.74-33.2,2.04-66.29-.08-99.32-2.42-50.16-3.56-99.84-10.77-148.52-23.75-14.84-3.96-29.14-9.39-42.55-17C21.86,388.79,5.05,367.69.13,337.51c-.13-8.04-.13-15.73-.13-23.89,2.29-16.08,6.73-31.3,8.49-47.02.45-4.06-.64-7.95-.78-11.94-1.11-31.96,5.95-62.08,20.1-90.65,4.3-8.67,9.06-17.08,14.61-25.01,2.01-2.87,1.98-4.95.02-7.97-16.95-26.06-15.04-65.36,4.49-89.59,11.08-13.75,26.01-21.1,43.27-23.57,26.12-3.74,47.24,6.16,64.78,24.89,2.18,2.33,3.95,2.8,6.86,1.71,30.34-11.42,61.88-15.72,94.1-14.38,42.79,1.77,83.48,12.27,121.81,31.49,3.76,1.88,6.24,1.81,9.75-.8,30.68-22.81,70.78-19.74,96.2,7.14,10.26,10.84,15.23,23.94,16.7,38.65,1.96,19.6-2.26,37.67-12.81,54.26-1.51,2.37-.99,4.26.11,6.49,11.66,23.65,18.49,48.77,22.49,74.71.78,5.08,1.07,10.23,1.7,15.74.11,12.07.11,23.76.11,35.92m-295.8,133.53c23,2.61,46.12,3.77,69.22,4.44,20.29.59,40.62.93,60.93-.68,22.51-1.79,44.54-5.58,65.61-13.96,36.54-14.53,62.23-39.63,75.25-77.16,12.28-35.39,12.78-71.41,6.01-107.82-4.38-23.56-12.13-45.99-23.63-67.06-1.07-1.96-2.15-3.65-.08-5.78,9.58-9.85,14.34-22.05,15.75-35.4,2.36-22.22-2.79-41.44-23.78-54.83-22.3-14.22-50.97-10.43-71.88,9.73-3.28,3.16-5.55,3.29-9.38,1.2-41.38-22.59-85.59-34.34-132.84-34.7-31.19-.24-61.3,4.82-90,17.2-3.85,1.66-5.67.93-8.09-2.45-13.26-18.54-30.68-29.47-54.29-27.4-15.82,1.39-29.04,8-38.39,21.34-9.84,14.04-11.83,29.95-9.89,46.31,1.33,11.17,5.1,21.9,14.15,29.51,3.45,2.9,3.25,4.63.73,8.03-26.46,35.59-41.46,74.89-38.4,119.98.36,5.29.55,10.65-.48,15.94-2.34,12.07-4.77,24.13-6.91,36.24-3.98,22.49.15,43.18,15.05,60.91,12.6,14.99,29.37,23.96,47.59,30.05,44.42,14.86,90.53,21.19,137.77,26.37Z"/>
  <path class="cls-2" d="m477.08,362.07c-14.5,26.48-37.16,43.53-64.65,54.66-21.16,8.57-43.36,12.34-66.03,14.12-20.96,1.65-41.95,1.39-62.88.63-29.06-1.05-58.1-2.83-86.99-6.59-34.62-4.48-69.04-9.98-102.76-19.23-18.9-5.19-36.98-12.37-52.35-24.98-20.39-16.73-28.67-38.43-26.09-64.56,1.41-14.28,5.78-27.97,7.7-42.14.81-6,.79-11.98.43-17.93-2.28-38.32,8.71-72.93,29.1-104.93,3.21-5.05,6.81-9.86,10.32-14.71,1.31-1.81,2.16-3.35-.06-5.09-10-7.8-14.23-18.91-15.74-30.76-2.08-16.35-.06-32.24,9.67-46.32,9.25-13.4,22.46-20.08,38.25-21.52,23.79-2.18,41.33,8.82,54.66,27.55,2.26,3.17,3.99,3.95,7.68,2.36,28.84-12.48,59.08-17.55,90.43-17.29,47.22.4,91.38,12.2,132.73,34.78,3.58,1.96,5.81,1.97,8.99-1.08,12.63-12.07,27.54-19.31,45.41-18.34,23.75,1.28,49.23,18.14,50.78,50.01.52,10.6-.85,20.91-4.89,30.78-2.9,6.89-6.19,12.67-10.96,17.45-1.68,1.68-1.91,3.17-.75,5.28,13.84,25.04,22.32,51.87,26.11,80.17,5.48,40.97,2.14,80.69-18.11,117.68Z"/>
  <path class="cls-1" d="m281.27,348.92c-6.77,9-16,7.89-20.34-2.06-2.04-4.69-3.64-9.59-6.86-14.45-5.13,3.88-10.03,7.53-14.87,11.25-9.32,7.17-15.37,5.87-20.75-4.51-2.51-4.84-5-9.68-7.67-14.84-5.75,2.97-9.77,7.27-14.49,10.58-.41.29-.78.63-1.17.93-12.98,10.08-19.18,8.05-23.59-7.71-.26-.94-.71-1.83-1.41-3.56-3.81,3.23-7.32,6.15-10.77,9.13-5.88,5.09-12.65,5.31-16.82.5-4.45-5.13-3.66-11.32,2.33-16.6,7.86-6.95,15.78-13.84,23.76-20.64,7.25-6.17,16.1-3.44,18.69,5.67.81,2.85,1.54,5.72,2.53,9.41,5.29-3.84,10.01-7.38,14.85-10.76,10.19-7.15,15.6-5.72,21.35,5.42,2.34,4.55,4.26,9.34,7.64,13.91,5.65-4.23,11.13-8.25,16.52-12.38,7.97-6.1,15.08-4.5,19.32,4.68,4.05,8.76,7.82,17.65,11.71,26.49,1.33,3.03,1.6,6.09.03,9.55Z"/>
  <path class="cls-1" d="m139.37,169.37c26.17,5.99,45.33,20.25,56.76,44.36,2.01,4.23,2.31,8.38-.85,12.16-3.02,3.62-6.85,4.69-11.61,3.89-17.69-2.98-35.39-3.09-53.07.31-7.58,1.46-13.68-2.03-14.79-8.2-1.26-7.02,2.67-11.61,10.85-13.13,11.8-2.19,23.71-3.09,36.04-2.92-.33-2.41-2.07-3.21-3.42-4.23-7.84-5.95-16.61-9.65-26.34-11.25-6.31-1.04-9.97-4.98-10.24-10.46-.25-4.89,2.78-9.44,7.34-10.66,2.93-.78,5.94-.53,9.33.14Z"/>
  <path class="cls-1" d="m463.05,126.79c-1.75,5.33-3.86,9.99-7.35,13.93-8.33,9.42-21.06,9.14-28.77-.7-.92-1.17-1.87-2.38-2.52-3.71-5.05-10.41-11.95-18.97-22.31-24.74-4.78-2.66-5.47-6.57-2.88-11.13,11.55-20.32,40.29-27.77,58.14-7.63,8.67,9.79,8.03,21.66,5.69,33.97Z"/>
  <path class="cls-1" d="m334.85,226.12c6.16,3.29,8.13,6.49,7.42,11.99-.6,4.66-3.55,7.3-7.82,8.79-2.96,1.03-5.62-.03-8.22-1.07-17.17-6.86-35.03-10.43-53.45-11.33-4.45-.22-7.6-2.36-9.47-6.26-1.99-4.17-1.52-8.37,1.68-11.61,16.08-16.21,33.58-30.01,57.5-32.36,3.56-.35,7.03.09,10.38,1.01,4.61,1.27,7.86,6.66,7.23,11.3-.78,5.78-5.43,9.95-12.07,9.63-10.39-.51-19.09,3.49-28.39,9.29,12.38,2.85,23.87,5.88,35.21,10.62Z"/>
  <path class="cls-1" d="m72.29,107.7c-6.54-12.54-6.54-25.02-1.02-37.38,6.17-13.84,23.6-20.89,39-16.08,8.93,2.79,15.77,8.41,20.92,16.18,1.69,2.55,1.59,4.3-1.35,6.04-17,10.06-32.53,22.04-46.37,36.15-2.66,2.71-4.78,2.49-7.1-.05-1.34-1.47-2.59-3.02-4.08-4.85Z"/>
</svg>