<?xml version="1.0" encoding="UTF-8"?>
<svg id="Smile_copy" data-name="Smile copy" xmlns="http://www.w3.org/2000/svg" viewBox="0 0 512.08 468.71">
  <defs>
    <style>
      .cls-1 {
        fill: #eae7f0;
      }

      .cls-1, .cls-2, .cls-3, .cls-4 {
        stroke-width: 0px;
      }

      .cls-2 {
        fill: #514284;
      }

      .cls-3 {
        fill: #fff;
        opacity: .25;
      }

      .cls-4 {
        fill: #decfe6;
      }
    </style>
  </defs>
  <path class="cls-2" d="m511.97,248.9c-.62-5.5-.91-10.66-1.69-15.73-4.01-25.94-10.82-51.06-22.49-74.69-1.1-2.23-1.61-4.11-.11-6.48,10.58-16.56,14.76-34.64,12.8-54.23-1.47-14.71-6.43-27.8-16.7-38.64-25.69-27.15-66.05-29.94-97.03-6.58-2.61,1.98-4.53,2.38-7.56.89-47.97-23.65-98.45-35.16-152.12-31.46-21.73,1.5-42.89,5.47-63.26,13.07-4.54,1.69-6.93.91-10.13-2.53C130.78,7.83,96.78,1.82,67.93,15.93c-38.21,18.66-46.18,72.12-26.39,104.57,2.88,4.72,2.44,7.51-.37,11.79C18.64,166.55,6.42,203.94,7.84,245.29c.14,3.98,1.02,8,.67,11.92-1.44,15.91-6.11,31.27-8.42,47.5,0,8.16,0,15.85.14,23.88,3.93,23.8,15.21,42.72,34.19,57.09,16.76,12.68,35.82,20.45,55.9,25.78,53.57,14.25,108.25,21.59,163.46,24.78,28.06,1.63,56.18,3.18,84.37,1.42,26.21-1.64,51.94-5.26,76.63-14.57,47.17-17.79,77.4-51,90.74-99.62,3.44-12.53,5.09-25.35,6.57-38.69,0-12.14,0-23.83-.12-35.89Zm-34.83,104.32c-14.51,26.49-37.19,43.54-64.7,54.68-21.17,8.57-43.39,12.34-66.08,14.12-20.97,1.65-41.98,1.39-62.92.63-29.08-1.05-58.14-2.83-87.05-6.59-34.65-4.48-69.09-9.99-102.83-19.23-18.91-5.19-37.01-12.38-52.38-24.98-20.4-16.73-28.69-38.44-26.11-64.58,1.41-14.28,5.79-27.98,7.7-42.15.81-6,.79-11.98.43-17.94-2.29-38.33,8.72-72.95,29.12-104.96,3.22-5.06,6.81-9.86,10.33-14.71,1.31-1.81,2.16-3.35-.06-5.09-10.01-7.81-14.24-18.91-15.75-30.77-2.08-16.35-.06-32.25,9.67-46.33,9.26-13.4,22.48-20.09,38.28-21.53,23.81-2.18,41.36,8.82,54.7,27.55,2.26,3.17,3.99,3.96,7.68,2.36,28.86-12.48,59.12-17.56,90.49-17.29,47.25.4,91.44,12.21,132.82,34.79,3.59,1.96,5.81,1.97,8.99-1.08,12.64-12.07,27.56-19.31,45.44-18.34,23.77,1.28,49.26,18.14,50.82,50.02.52,10.6-.85,20.91-4.89,30.79-2.9,6.9-6.19,12.67-10.96,17.45-1.68,1.68-1.92,3.17-.75,5.28,13.85,25.05,22.34,51.88,26.13,80.19,5.48,40.98,2.14,80.71-18.13,117.71Z"/>
  <path class="cls-4" d="m477.14,353.21c-14.51,26.49-37.19,43.54-64.7,54.68-21.17,8.57-43.39,12.34-66.08,14.12-20.97,1.65-41.98,1.39-62.92.63-29.08-1.05-58.14-2.83-87.05-6.59-34.65-4.48-69.09-9.99-102.83-19.23-18.91-5.19-37.01-12.38-52.38-24.98-20.4-16.73-28.69-38.44-26.11-64.58,1.41-14.28,5.79-27.98,7.7-42.15.81-6,.79-11.98.43-17.94-2.29-38.33,8.72-72.95,29.12-104.96,3.22-5.06,6.81-9.86,10.33-14.71,1.31-1.81,2.16-3.35-.06-5.09-10.01-7.81-14.24-18.91-15.75-30.77-2.08-16.35-.06-32.25,9.67-46.33,9.26-13.4,22.48-20.09,38.28-21.53,23.81-2.18,41.36,8.82,54.7,27.55,2.26,3.17,3.99,3.96,7.68,2.36,28.86-12.48,59.12-17.56,90.49-17.29,47.25.4,91.44,12.21,132.82,34.79,3.59,1.96,5.81,1.97,8.99-1.08,12.64-12.07,27.56-19.31,45.44-18.34,23.77,1.28,49.26,18.14,50.82,50.02.52,10.6-.85,20.91-4.89,30.79-2.9,6.9-6.19,12.67-10.96,17.45-1.68,1.68-1.92,3.17-.75,5.28,13.85,25.05,22.34,51.88,26.13,80.19,5.48,40.98,2.14,80.71-18.13,117.71Z"/>
  <path class="cls-2" d="m298.78,171.71c7.64,1.07,11.66,4.53,13.7,9.69,2.57,6.5.94,12.96.12,19.4-.72,5.66-1.93,11.27-2.84,16.91-1.21,7.52-6.61,12.12-15.22,12.9-7.88.71-16.18-3.43-19.55-9.86-3.11-5.93-3.26-12.03-1.91-18.21,1.22-5.6,1.88-11.29,3.38-16.84,2.63-9.76,10.1-14.37,22.33-13.98Z"/>
  <path class="cls-2" d="m427.93,114.35c-4.34-5.46-10.14-8.04-16.04-10.52-8.18-3.42-9.42-6.85-5.65-14.87,9.45-20.06,34.44-26.78,51.42-13.83,12.91,9.85,15.85,35.61,5.49,48.1-7.16,8.63-17.63,9.45-25.85,1.72-3.34-3.14-6.11-6.88-9.37-10.61Z"/>
  <path class="cls-2" d="m192.85,179.28c-.82,10.72-1.62,21.15-4.39,31.43-1.44,5.36-5.68,9.26-13.59,10.36-8.07,1.13-14.78-.91-19.66-5.54-5.5-5.22-7.01-11.3-6.25-17.54.88-7.15,2.41-14.27,3.93-21.37.43-2.03,1.56-4.05,2.81-5.92,3.92-5.89,13.24-9.4,21.6-8.3,8.22,1.08,14.13,6.09,15.06,12.76.18,1.27.31,2.55.49,4.12Z"/>
  <path class="cls-2" d="m68.8,90.25c-1.92-8.35-1.82-16.25.7-24.03,7.11-21.96,33.86-29.33,52.66-14.54.65.51,1.28,1.07,1.9,1.62,10.62,9.44,10.57,11.05-.88,18.47-14.02,9.08-27.19,19.25-38.79,31.27-3.53,3.65-5.94,3.07-8.98-.19-3.28-3.52-5.21-7.67-6.61-12.6Z"/>
  <ellipse class="cls-1" cx="380.78" cy="266.64" rx="32.85" ry="19.5" transform="translate(-27.49 44.36) rotate(-6.44)"/>
  <ellipse class="cls-1" cx="79.03" cy="242.53" rx="19.5" ry="32.85" transform="translate(-175.34 261.61) rotate(-76.24)"/>
  <path class="cls-2" d="m370.28,192.79c-5.54-1.91-5.94-6.11-7.29-10.31-7.61-23.6-28.56-39.82-52.63-40.82-23.29-.98-45.79,13.74-55.19,36.14-.71,1.69-.98,3.63-3.68,4.7-12.93-5.16-26.75-5.49-40.49-1.43-.71-1.39-1.17-2.05-1.4-2.78-8.27-25.74-28.39-41.99-53.4-43.1-24.38-1.09-46.48,14.24-56.34,39.13-1.18,2.99-2.16,5.65-5.99,6.62-3.32.84-5.18,4.39-1.89,6.53,5.26,3.41,4.85,8.33,5.44,13.19,3.58,29.22,31.47,51.88,61.31,49.14,25.97-2.2,46.71-21.15,51.54-46.58,2.78-14.63,4.59-16.15,19.61-16.21,2.11-.01,4.26.1,6.35.44,12.66,2.06,13.41,2.91,14.71,15.48.24,2.37.67,4.73,1.12,7.08,5.08,26.33,30.43,47.37,56.15,46.62,29.21-.85,53.1-21.74,56.57-49.63.43-3.48,1.27-5.68,4.93-7.13,3.78-1.5,4.56-5.71.57-7.08Zm-170.44,15.62c-6.87,20.82-28.41,35.09-49.1,32.98-23.7-2.4-40.75-18.43-44.46-41.8.5-13.15,1.06-24.95,8.59-35.19,7.47-10.14,17.36-16.39,29.43-18.87,25.5-5.24,51.3,11.13,56.8,35.51.56,2.5.68,4.65-.9,6.75-1.18,1.57-2.14,3.57-.65,5.09,5.06,5.17,1.92,10.58.29,15.53Zm108.65,39.44c-23.66,1.21-47.59-20.7-48.76-44.62-.11-2.4-.11-4.8,1.91-6.62,1.22-1.1,1.94-2.39,1.93-4.16-.1-18.7,9.68-32.13,28.16-38.72,22.17-7.9,43.94-.17,58.12,20.63,16.81,34.75-2.39,71.51-41.36,73.49Z"/>
  <path class="cls-3" d="m308.49,247.85c-23.66,1.21-47.59-20.7-48.76-44.62-.11-2.4-.11-4.8,1.91-6.62,1.22-1.1,1.94-2.39,1.93-4.16-.1-18.7,9.68-32.13,28.16-38.72,22.17-7.9,43.94-.17,58.12,20.63,16.81,34.75-2.39,71.51-41.36,73.49Z"/>
  <path class="cls-3" d="m199.84,208.41c-6.87,20.82-28.41,35.09-49.1,32.98-23.7-2.4-40.75-18.43-44.46-41.8.5-13.15,1.06-24.95,8.59-35.19,7.47-10.14,17.36-16.39,29.43-18.87,25.5-5.24,51.3,11.13,56.8,35.51.56,2.5.68,4.65-.9,6.75-1.18,1.57-2.14,3.57-.65,5.09,5.06,5.17,1.92,10.58.29,15.53Z"/>
  <polyline class="cls-2" points="91.98 187.47 36.65 171.69 40.42 159.53 99.67 178.34"/>
  <path class="cls-2" d="m365.98,189.91s71.64,7.29,119.37-2.44l7.28,15.35h-126.69"/>
  <path class="cls-2" d="m249.4,300.05c4.88,4.14,12.71,6.69,20.74,9.2,11.12,3.47,11.99,5.83,4.14,10.28-19.64,11.13-58.49,11.37-79.93.48-16.3-8.28-13.36-24.99,5.5-31.21,13.03-4.3,28.74-3.14,38.69,3.06,4.04,2.52,7.08,5.32,10.85,8.19Z"/>
</svg>